<?xml version="1.0" encoding="UTF-8" standalone="no"?>
<!-- Created with Inkscape (http://www.inkscape.org/) -->

<svg
   width="105mm"
   height="73mm"
   viewBox="0 0 105 73"
   version="1.1"
   id="svg31"
   inkscape:version="1.1.1 (3bf5ae0d25, 2021-09-20)"
   sodipodi:docname="Russian_flag.svg"
   xmlns:inkscape="http://www.inkscape.org/namespaces/inkscape"
   xmlns:sodipodi="http://sodipodi.sourceforge.net/DTD/sodipodi-0.dtd"
   xmlns="http://www.w3.org/2000/svg"
   xmlns:svg="http://www.w3.org/2000/svg">
  <sodipodi:namedview
     id="namedview33"
     pagecolor="#ffffff"
     bordercolor="#999999"
     borderopacity="1"
     inkscape:pageshadow="0"
     inkscape:pageopacity="0"
     inkscape:pagecheckerboard="0"
     inkscape:document-units="mm"
     showgrid="false"
     width="104mm"
     inkscape:zoom="0.70710678"
     inkscape:cx="255.26555"
     inkscape:cy="341.53257"
     inkscape:window-width="1920"
     inkscape:window-height="1001"
     inkscape:window-x="-9"
     inkscape:window-y="-9"
     inkscape:window-maximized="1"
     inkscape:current-layer="layer1" />
  <defs
     id="defs28" />
  <g
     inkscape:label="Layer 1"
     inkscape:groupmode="layer"
     id="layer1">
    <g
       id="g157"
       transform="matrix(1.0579147,0,0,1.1940335,-3.5785578,-4.9662862)">
      <path
         style="fill:#fefefe;stroke-width:0.107561"
         d="m 3.6113187,15.123697 0.028324,-10.2807584 0.8056727,0.00362 c 0.44312,0.00199 0.8056727,-0.033148 0.8056727,-0.078082 0,-0.044934 0.3750545,-0.081697 0.8334545,-0.081697 0.4584,0 0.8334545,0.035918 0.8334545,0.079817 0,0.043899 0.3750545,0.079817 0.8334545,0.079817 0.4584,0 0.8334545,-0.035918 0.8334545,-0.079817 0,-0.043899 0.3750545,-0.079817 0.8334545,-0.079817 0.4584,0 0.8334544,0.035918 0.8334544,0.079817 0,0.043899 0.375054,0.079817 0.833454,0.079817 0.4584,0 0.833455,-0.035918 0.833455,-0.079817 0,-0.043899 0.375054,-0.079817 0.833454,-0.079817 0.4584,0 0.833455,0.035918 0.833455,0.079817 0,0.043899 0.375054,0.079817 0.833454,0.079817 0.4584,0 0.833455,-0.035918 0.833455,-0.079817 0,-0.043899 0.375054,-0.079817 0.833454,-0.079817 0.4584,0 0.833455,0.035918 0.833455,0.079817 0,0.043899 0.375054,0.079817 0.833454,0.079817 0.4584,0 0.833455,-0.035918 0.833455,-0.079817 0,-0.043899 0.375054,-0.079817 0.833454,-0.079817 0.4584,0 0.833455,0.035918 0.833455,0.079817 0,0.043899 0.375054,0.079817 0.833454,0.079817 0.4584,0 0.833455,-0.035918 0.833455,-0.079817 0,-0.043899 0.375054,-0.079817 0.833454,-0.079817 0.4584,0 0.833455,0.035918 0.833455,0.079817 0,0.043899 0.375054,0.079817 0.833454,0.079817 0.4584,0 0.833455,-0.035918 0.833455,-0.079817 0,-0.043899 0.375054,-0.079817 0.833454,-0.079817 0.4584,0 0.833455,0.035918 0.833455,0.079817 0,0.043899 0.375054,0.079817 0.833454,0.079817 0.4584,0 0.833455,-0.035918 0.833455,-0.079817 0,-0.043899 0.375054,-0.079817 0.833454,-0.079817 0.4584,0 0.833455,0.035918 0.833455,0.079817 0,0.043899 0.375054,0.079817 0.833454,0.079817 0.4584,0 0.833455,-0.035918 0.833455,-0.079817 0,-0.043899 0.375054,-0.079817 0.833454,-0.079817 0.4584,0 0.833455,0.035918 0.833455,0.079817 0,0.043899 0.375054,0.079817 0.833454,0.079817 0.4584,0 0.833455,-0.035918 0.833455,-0.079817 0,-0.043899 0.375054,-0.079817 0.833454,-0.079817 0.4584,0 0.833455,0.035918 0.833455,0.079817 0,0.043899 0.375054,0.079817 0.833454,0.079817 0.4584,0 0.833455,-0.035918 0.833455,-0.079817 0,-0.043899 0.375054,-0.079817 0.833454,-0.079817 0.4584,0 0.833455,0.035918 0.833455,0.079817 0,0.043899 0.375054,0.079817 0.833454,0.079817 0.4584,0 0.833455,-0.035918 0.833455,-0.079817 0,-0.043899 0.375054,-0.079817 0.833454,-0.079817 0.4584,0 0.833455,0.035918 0.833455,0.079817 0,0.043899 0.375054,0.079817 0.833454,0.079817 0.4584,0 0.833455,-0.035918 0.833455,-0.079817 0,-0.043899 0.375054,-0.079817 0.833454,-0.079817 0.4584,0 0.833455,0.035918 0.833455,0.079817 0,0.043899 0.375054,0.079817 0.833454,0.079817 0.4584,0 0.833455,-0.035918 0.833455,-0.079817 0,-0.043899 0.375054,-0.079817 0.833454,-0.079817 0.4584,0 0.833455,0.035918 0.833455,0.079817 0,0.043899 0.375054,0.079817 0.833454,0.079817 0.4584,0 0.833455,-0.035918 0.833455,-0.079817 0,-0.043899 0.375054,-0.079817 0.833454,-0.079817 0.4584,0 0.833455,0.035918 0.833455,0.079817 0,0.043899 0.375054,0.079817 0.833454,0.079817 0.4584,0 0.833455,-0.035918 0.833455,-0.079817 0,-0.043899 0.375054,-0.079817 0.833454,-0.079817 0.4584,0 0.833455,0.035918 0.833455,0.079817 0,0.043899 0.375054,0.079817 0.833454,0.079817 0.4584,0 0.833455,-0.035918 0.833455,-0.079817 0,-0.043899 0.375054,-0.079817 0.833454,-0.079817 0.4584,0 0.833455,0.035918 0.833455,0.079817 0,0.043899 0.375054,0.079817 0.833454,0.079817 0.4584,0 0.833455,-0.035918 0.833455,-0.079817 0,-0.043899 0.375054,-0.079817 0.833454,-0.079817 0.4584,0 0.833455,0.035918 0.833455,0.079817 0,0.043899 0.375054,0.079817 0.833454,0.079817 0.4584,0 0.833455,-0.035918 0.833455,-0.079817 0,-0.043899 0.375054,-0.079817 0.833454,-0.079817 0.4584,0 0.833455,0.035918 0.833455,0.079817 0,0.043899 0.375054,0.079817 0.833454,0.079817 0.4584,0 0.833455,-0.035918 0.833455,-0.079817 0,-0.043899 0.375054,-0.079817 0.833454,-0.079817 0.4584,0 0.833455,0.035918 0.833455,0.079817 0,0.043899 0.375054,0.079817 0.833454,0.079817 0.4584,0 0.833455,-0.035918 0.833455,-0.079817 0,-0.043899 0.375054,-0.079817 0.833454,-0.079817 0.4584,0 0.833455,0.035918 0.833455,0.079817 0,0.043899 0.375054,0.079817 0.833454,0.079817 0.4584,0 0.833455,-0.035918 0.833455,-0.079817 0,-0.043899 0.375054,-0.079817 0.833454,-0.079817 0.4584,0 0.833455,0.035918 0.833455,0.079817 0,0.043899 0.375054,0.079817 0.833454,0.079817 0.4584,0 0.833455,-0.035918 0.833455,-0.079817 0,-0.043899 0.375054,-0.079817 0.833454,-0.079817 0.4584,0 0.833455,0.035918 0.833455,0.079817 0,0.043899 0.375054,0.079817 0.833454,0.079817 0.4584,0 0.833455,-0.035918 0.833455,-0.079817 0,-0.043899 0.375054,-0.079817 0.833454,-0.079817 0.4584,0 0.833455,0.035918 0.833455,0.079817 0,0.043899 0.375054,0.079817 0.833454,0.079817 0.4584,0 0.833455,-0.035918 0.833455,-0.079817 0,-0.043899 0.375054,-0.079817 0.833454,-0.079817 0.4584,0 0.833455,0.035918 0.833455,0.079817 0,0.043899 0.375054,0.079817 0.833454,0.079817 0.4584,0 0.833455,-0.035918 0.833455,-0.079817 0,-0.043899 0.375054,-0.079817 0.833454,-0.079817 0.4584,0 0.833455,0.035918 0.833455,0.079817 0,0.043899 0.375054,0.079817 0.833454,0.079817 0.4584,0 0.833455,-0.035918 0.833455,-0.079817 0,-0.043899 0.375054,-0.079817 0.833454,-0.079817 0.4584,0 0.833454,0.035918 0.833454,0.079817 0,0.043899 0.375055,0.079817 0.833455,0.079817 0.4584,0 0.833454,-0.035918 0.833454,-0.079817 0,-0.043899 0.375055,-0.079817 0.833455,-0.079817 0.4584,0 0.833454,0.035918 0.833454,0.079817 0,0.043899 0.375055,0.079817 0.833455,0.079817 0.4584,0 0.833454,-0.035918 0.833454,-0.079817 0,-0.043899 0.375055,-0.079817 0.833455,-0.079817 0.4584,0 0.833454,0.035918 0.833454,0.079817 0,0.043899 0.37505,0.079817 0.83345,0.079817 0.4584,0 0.83346,-0.035918 0.83346,-0.079817 0,-0.043899 0.12502,-0.079817 0.27782,-0.079817 h 0.27782 V 15.045615 25.404455 H 53.03517 3.582995 Z"
         id="path173" />
      <path
         style="fill:#e2e2e2;stroke-width:0.107561"
         d="m 3.5840788,4.7665921 c 0,-0.043899 0.3750545,-0.079817 0.8334545,-0.079817 0.4584,0 0.8334545,0.035918 0.8334545,0.079817 0,0.043899 -0.3750545,0.079817 -0.8334545,0.079817 -0.4584,0 -0.8334545,-0.035918 -0.8334545,-0.079817 z m 3.333818,0 c 0,-0.043899 0.3750545,-0.079817 0.8334545,-0.079817 0.4584,0 0.8334545,0.035918 0.8334545,0.079817 0,0.043899 -0.3750545,0.079817 -0.8334545,0.079817 -0.4584,0 -0.8334545,-0.035918 -0.8334545,-0.079817 z m 3.3338182,0 c 0,-0.043899 0.375054,-0.079817 0.833454,-0.079817 0.4584,0 0.833455,0.035918 0.833455,0.079817 0,0.043899 -0.375055,0.079817 -0.833455,0.079817 -0.4584,0 -0.833454,-0.035918 -0.833454,-0.079817 z m 3.333818,0 c 0,-0.043899 0.375054,-0.079817 0.833454,-0.079817 0.4584,0 0.833455,0.035918 0.833455,0.079817 0,0.043899 -0.375055,0.079817 -0.833455,0.079817 -0.4584,0 -0.833454,-0.035918 -0.833454,-0.079817 z m 3.333818,0 c 0,-0.043899 0.375054,-0.079817 0.833454,-0.079817 0.4584,0 0.833455,0.035918 0.833455,0.079817 0,0.043899 -0.375055,0.079817 -0.833455,0.079817 -0.4584,0 -0.833454,-0.035918 -0.833454,-0.079817 z m 3.333818,0 c 0,-0.043899 0.375054,-0.079817 0.833454,-0.079817 0.4584,0 0.833455,0.035918 0.833455,0.079817 0,0.043899 -0.375055,0.079817 -0.833455,0.079817 -0.4584,0 -0.833454,-0.035918 -0.833454,-0.079817 z m 3.333818,0 c 0,-0.043899 0.375054,-0.079817 0.833454,-0.079817 0.4584,0 0.833455,0.035918 0.833455,0.079817 0,0.043899 -0.375055,0.079817 -0.833455,0.079817 -0.4584,0 -0.833454,-0.035918 -0.833454,-0.079817 z m 3.333818,0 c 0,-0.043899 0.375054,-0.079817 0.833454,-0.079817 0.4584,0 0.833455,0.035918 0.833455,0.079817 0,0.043899 -0.375055,0.079817 -0.833455,0.079817 -0.4584,0 -0.833454,-0.035918 -0.833454,-0.079817 z m 3.333818,0 c 0,-0.043899 0.375054,-0.079817 0.833454,-0.079817 0.4584,0 0.833455,0.035918 0.833455,0.079817 0,0.043899 -0.375055,0.079817 -0.833455,0.079817 -0.4584,0 -0.833454,-0.035918 -0.833454,-0.079817 z m 3.333818,0 c 0,-0.043899 0.375054,-0.079817 0.833454,-0.079817 0.4584,0 0.833455,0.035918 0.833455,0.079817 0,0.043899 -0.375055,0.079817 -0.833455,0.079817 -0.4584,0 -0.833454,-0.035918 -0.833454,-0.079817 z m 3.333818,0 c 0,-0.043899 0.375054,-0.079817 0.833454,-0.079817 0.4584,0 0.833455,0.035918 0.833455,0.079817 0,0.043899 -0.375055,0.079817 -0.833455,0.079817 -0.4584,0 -0.833454,-0.035918 -0.833454,-0.079817 z m 3.333818,0 c 0,-0.043899 0.375054,-0.079817 0.833454,-0.079817 0.4584,0 0.833455,0.035918 0.833455,0.079817 0,0.043899 -0.375055,0.079817 -0.833455,0.079817 -0.4584,0 -0.833454,-0.035918 -0.833454,-0.079817 z m 3.333818,0 c 0,-0.043899 0.375054,-0.079817 0.833454,-0.079817 0.4584,0 0.833455,0.035918 0.833455,0.079817 0,0.043899 -0.375055,0.079817 -0.833455,0.079817 -0.4584,0 -0.833454,-0.035918 -0.833454,-0.079817 z m 3.333818,0 c 0,-0.043899 0.375054,-0.079817 0.833454,-0.079817 0.4584,0 0.833455,0.035918 0.833455,0.079817 0,0.043899 -0.375055,0.079817 -0.833455,0.079817 -0.4584,0 -0.833454,-0.035918 -0.833454,-0.079817 z m 3.333818,0 c 0,-0.043899 0.375054,-0.079817 0.833454,-0.079817 0.4584,0 0.833455,0.035918 0.833455,0.079817 0,0.043899 -0.375055,0.079817 -0.833455,0.079817 -0.4584,0 -0.833454,-0.035918 -0.833454,-0.079817 z m 3.333818,0 c 0,-0.043899 0.375054,-0.079817 0.833454,-0.079817 0.4584,0 0.833455,0.035918 0.833455,0.079817 0,0.043899 -0.375055,0.079817 -0.833455,0.079817 -0.4584,0 -0.833454,-0.035918 -0.833454,-0.079817 z m 3.333818,0 c 0,-0.043899 0.375054,-0.079817 0.833454,-0.079817 0.4584,0 0.833455,0.035918 0.833455,0.079817 0,0.043899 -0.375055,0.079817 -0.833455,0.079817 -0.4584,0 -0.833454,-0.035918 -0.833454,-0.079817 z m 3.333818,0 c 0,-0.043899 0.375054,-0.079817 0.833454,-0.079817 0.4584,0 0.833455,0.035918 0.833455,0.079817 0,0.043899 -0.375055,0.079817 -0.833455,0.079817 -0.4584,0 -0.833454,-0.035918 -0.833454,-0.079817 z m 3.333818,0 c 0,-0.043899 0.375054,-0.079817 0.833454,-0.079817 0.4584,0 0.833455,0.035918 0.833455,0.079817 0,0.043899 -0.375055,0.079817 -0.833455,0.079817 -0.4584,0 -0.833454,-0.035918 -0.833454,-0.079817 z m 3.333818,0 c 0,-0.043899 0.375054,-0.079817 0.833454,-0.079817 0.4584,0 0.833455,0.035918 0.833455,0.079817 0,0.043899 -0.375055,0.079817 -0.833455,0.079817 -0.4584,0 -0.833454,-0.035918 -0.833454,-0.079817 z m 3.333818,0 c 0,-0.043899 0.375054,-0.079817 0.833454,-0.079817 0.4584,0 0.833455,0.035918 0.833455,0.079817 0,0.043899 -0.375055,0.079817 -0.833455,0.079817 -0.4584,0 -0.833454,-0.035918 -0.833454,-0.079817 z m 3.333818,0 c 0,-0.043899 0.375054,-0.079817 0.833454,-0.079817 0.4584,0 0.833455,0.035918 0.833455,0.079817 0,0.043899 -0.375055,0.079817 -0.833455,0.079817 -0.4584,0 -0.833454,-0.035918 -0.833454,-0.079817 z m 3.333818,0 c 0,-0.043899 0.375054,-0.079817 0.833454,-0.079817 0.4584,0 0.833455,0.035918 0.833455,0.079817 0,0.043899 -0.375055,0.079817 -0.833455,0.079817 -0.4584,0 -0.833454,-0.035918 -0.833454,-0.079817 z m 3.333818,0 c 0,-0.043899 0.375054,-0.079817 0.833454,-0.079817 0.4584,0 0.833455,0.035918 0.833455,0.079817 0,0.043899 -0.375055,0.079817 -0.833455,0.079817 -0.4584,0 -0.833454,-0.035918 -0.833454,-0.079817 z m 3.333818,0 c 0,-0.043899 0.375054,-0.079817 0.833454,-0.079817 0.4584,0 0.833455,0.035918 0.833455,0.079817 0,0.043899 -0.375055,0.079817 -0.833455,0.079817 -0.4584,0 -0.833454,-0.035918 -0.833454,-0.079817 z m 3.333818,0 c 0,-0.043899 0.375054,-0.079817 0.833454,-0.079817 0.4584,0 0.833455,0.035918 0.833455,0.079817 0,0.043899 -0.375055,0.079817 -0.833455,0.079817 -0.4584,0 -0.833454,-0.035918 -0.833454,-0.079817 z m 3.333818,0 c 0,-0.043899 0.375054,-0.079817 0.833454,-0.079817 0.4584,0 0.833455,0.035918 0.833455,0.079817 0,0.043899 -0.375055,0.079817 -0.833455,0.079817 -0.4584,0 -0.833454,-0.035918 -0.833454,-0.079817 z m 3.333817,0 c 0,-0.043899 0.375055,-0.079817 0.833455,-0.079817 0.4584,0 0.833454,0.035918 0.833454,0.079817 0,0.043899 -0.375054,0.079817 -0.833454,0.079817 -0.4584,0 -0.833455,-0.035918 -0.833455,-0.079817 z m 3.333818,0 c 0,-0.043899 0.375055,-0.079817 0.833455,-0.079817 0.4584,0 0.833454,0.035918 0.833454,0.079817 0,0.043899 -0.375054,0.079817 -0.833454,0.079817 -0.4584,0 -0.833455,-0.035918 -0.833455,-0.079817 z m 3.333818,0 c 0,-0.043899 0.37505,-0.079817 0.83345,-0.079817 0.4584,0 0.83346,0.035918 0.83346,0.079817 0,0.043899 -0.37506,0.079817 -0.83346,0.079817 -0.4584,0 -0.83345,-0.035918 -0.83345,-0.079817 z"
         id="path171" />
      <path
         style="fill:#2858b2;stroke-width:0.107561"
         d="m 3.63752,35.711241 c 0,-5.697362 0.013446,-8.028101 0.02988,-5.17942 0.016434,2.848681 0.016434,7.510159 0,10.35884 -0.016434,2.848681 -0.02988,0.517942 -0.02988,-5.17942 z m 98.79214,0 c 0,-5.697362 0.0135,-8.028101 0.0299,-5.17942 0.0164,2.848681 0.0164,7.510159 0,10.35884 -0.0164,2.848681 -0.0299,0.517942 -0.0299,-5.17942 z"
         id="path169" />
      <path
         style="fill:#fa2704;stroke-width:0.107561"
         d="m 28.291189,46.044055 c 13.61947,-0.01457 35.872706,-0.01457 49.451634,0 13.578927,0.01457 2.435724,0.02649 -24.762674,0.02649 -27.198399,0 -38.308431,-0.01192 -24.68896,-0.02649 z"
         id="path167" />
      <path
         style="fill:#d42a1d;stroke-width:0.107561"
         d="m 3.6373561,55.648104 c -6.4e-6,-5.267913 0.013509,-7.438221 0.030035,-4.822909 0.016525,2.615314 0.016531,6.925424 1.17e-5,9.578023 -0.016519,2.652601 -0.03004,0.512798 -0.030047,-4.755114 z m 0.1689772,-2e-6 v -9.526431 l 49.2849427,0.02626 c 32.777924,0.01746 49.300614,-0.0086 49.331734,-0.07785 0.0257,-0.05726 0.0507,4.217505 0.0556,9.499479 l 0.009,9.603588 -49.340506,7.28e-4 -49.3405062,7.29e-4 v -9.52643 z"
         id="path165" />
      <path
         style="fill:#053dab;stroke-width:0.107561"
         d="m 28.504368,45.835837 c 13.492239,-0.01457 35.570449,-0.01457 49.062688,0 13.49224,0.01457 2.453135,0.02649 -24.531344,0.02649 -26.984478,0 -38.023583,-0.01192 -24.531344,-0.02649 z M 28.393241,25.430484 c 13.553359,-0.01457 35.731583,-0.01457 49.284943,0 13.553359,0.01457 2.464247,0.02649 -24.642472,0.02649 -27.106718,0 -38.19583,-0.01192 -24.642471,-0.02649 z"
         id="path163" />
      <path
         style="fill:#d21104;stroke-width:0.107561"
         d="m 3.7484834,55.648104 c -6.5e-6,-5.267913 0.013509,-7.438221 0.030034,-4.822909 0.016526,2.615314 0.016531,6.925424 1.18e-5,9.578023 -0.016519,2.652601 -0.03004,0.512798 -0.030046,-4.755114 z"
         id="path161" />
      <path
         style="fill:#0038a5;stroke-width:0.107561"
         d="M 3.6952061,35.737268 V 25.45651 H 53.035712 102.37622 V 35.737268 46.018026 H 53.035712 3.6952061 Z M 77.567056,45.835837 c -13.492239,-0.01457 -35.570449,-0.01457 -49.062688,0 -13.492239,0.01457 -2.453134,0.02649 24.531344,0.02649 26.984479,0 38.023584,-0.01192 24.531344,-0.02649 z"
         id="path159" />
    </g>
  </g>
</svg>
